<svg width="120" height="121" viewBox="0 0 120 121" fill="none" xmlns="http://www.w3.org/2000/svg">
<mask id="mask0" mask-type="alpha" maskUnits="userSpaceOnUse" x="0" y="0" width="59" height="121">
<path d="M0 0H59V121H0V0Z" fill="#C4C4C4"/>
</mask>
<g mask="url(#mask0)">
<path d="M60 119C92.0325 119 118 93.0325 118 61C118 28.9675 92.0325 3 60 3C27.9675 3 2 28.9675 2 61C2 93.0325 27.9675 119 60 119Z" stroke="url(#paint0_linear)" stroke-width="4"/>
</g>
<mask id="mask1" mask-type="alpha" maskUnits="userSpaceOnUse" x="61" y="1" width="59" height="59">
<path d="M61 1H120V60H61V1Z" fill="#C4C4C4"/>
</mask>
<g mask="url(#mask1)">
<path d="M60 119C92.0325 119 118 93.0325 118 61C118 28.9675 92.0325 3 60 3C27.9675 3 2 28.9675 2 61C2 93.0325 27.9675 119 60 119Z" stroke="url(#paint1_linear)" stroke-width="4"/>
</g>
<mask id="mask2" mask-type="alpha" maskUnits="userSpaceOnUse" x="61" y="62" width="59" height="59">
<path d="M120 62V121H61V62H120Z" fill="#C4C4C4"/>
</mask>
<g mask="url(#mask2)">
<path d="M2 61C2 93.0325 27.9675 119 60 119C92.0325 119 118 93.0325 118 61C118 28.9675 92.0325 3 60 3C27.9675 3 2 28.9675 2 61Z" stroke="url(#paint2_linear)" stroke-width="4"/>
</g>
<defs>
<linearGradient id="paint0_linear" x1="60" y1="1" x2="60" y2="121" gradientUnits="userSpaceOnUse">
<stop stop-color="#FFE39C"/>
<stop offset="1" stop-color="#FFBA9C"/>
</linearGradient>
<linearGradient id="paint1_linear" x1="60" y1="1" x2="60" y2="121" gradientUnits="userSpaceOnUse">
<stop stop-color="#BC9CFF"/>
<stop offset="1" stop-color="#8BA4F9"/>
</linearGradient>
<linearGradient id="paint2_linear" x1="120" y1="61" x2="-3.2911e-06" y2="61" gradientUnits="userSpaceOnUse">
<stop stop-color="#6FCF97"/>
<stop offset="1" stop-color="#66D2EA"/>
</linearGradient>
</defs>
</svg>
