<?xml version="1.0" encoding="utf-8"?>
<!-- Generator: Adobe Illustrator 23.1.0, SVG Export Plug-In . SVG Version: 6.00 Build 0)  -->
<svg version="1.1" id="Слой_1" xmlns="http://www.w3.org/2000/svg" xmlns:xlink="http://www.w3.org/1999/xlink" x="0px" y="0px"
	 viewBox="0 0 24 24" style="enable-background:new 0 0 24 24;" xml:space="preserve">
<style type="text/css">
	.st0{fill:url(#SVGID_1_);}
	.st1{fill:none;}
</style>
<linearGradient id="SVGID_1_" gradientUnits="userSpaceOnUse" x1="12.0198" y1="11.5736" x2="11.8729" y2="29.573">
	<stop  offset="0" style="stop-color:#BC9CFF"/>
	<stop  offset="1" style="stop-color:#8BA4F9"/>
</linearGradient>
<path class="st0" d="M15,11V5l-3-3L9,5v2H3v14h18V11H15z M7,19H5v-2h2V19z M7,15H5v-2h2V15z M7,11H5V9h2V11z M13,19h-2v-2h2V19z
	 M13,15h-2v-2h2V15z M13,11h-2V9h2V11z M13,7h-2V5h2V7z M19,19h-2v-2h2V19z M19,15h-2v-2h2V15z"/>
<path class="st1" d="M0,0h24v24H0V0z"/>
</svg>
