<?xml version="1.0" encoding="utf-8"?>
<!-- Generator: Adobe Illustrator 23.1.0, SVG Export Plug-In . SVG Version: 6.00 Build 0)  -->
<svg version="1.1" id="Слой_1" xmlns="http://www.w3.org/2000/svg" xmlns:xlink="http://www.w3.org/1999/xlink" x="0px" y="0px"
	 viewBox="0 0 24 24" style="enable-background:new 0 0 24 24;" xml:space="preserve">
<style type="text/css">
	.st0{fill:url(#SVGID_1_);}
	.st1{fill:none;}
</style>
<linearGradient id="SVGID_1_" gradientUnits="userSpaceOnUse" x1="12.0742" y1="-0.1733" x2="11.9472" y2="24.0741">
	<stop  offset="0" style="stop-color:#BC9CFF"/>
	<stop  offset="1" style="stop-color:#8BA4F9"/>
</linearGradient>
<path class="st0" d="M13.5,0.7c0,0,0.7,2.7,0.7,4.8c0,2.1-1.4,3.7-3.4,3.7c-2.1,0-3.6-1.7-3.6-3.7l0-0.4C5.2,7.5,4,10.6,4,14
	c0,4.4,3.6,8,8,8s8-3.6,8-8C20,8.6,17.4,3.8,13.5,0.7z M11.7,19c-1.8,0-3.2-1.4-3.2-3.1c0-1.6,1.1-2.8,2.8-3.1
	c1.8-0.4,3.6-1.2,4.6-2.6c0.4,1.3,0.6,2.6,0.6,4C16.5,16.9,14.4,19,11.7,19z"/>
<path class="st1" d="M0,0h24v24H0V0z"/>
</svg>
