<?xml version="1.0" encoding="utf-8"?>
<!-- Generator: Adobe Illustrator 23.1.0, SVG Export Plug-In . SVG Version: 6.00 Build 0)  -->
<svg version="1.1" id="Слой_1" xmlns="http://www.w3.org/2000/svg" xmlns:xlink="http://www.w3.org/1999/xlink" x="0px" y="0px"
	 viewBox="0 0 18 18" style="enable-background:new 0 0 18 18;" xml:space="preserve">
<style type="text/css">
	.st0{fill:none;}
	.st1{fill:url(#SVGID_1_);}
</style>
<path class="st0" d="M0,0h18v18H0V0z"/>
<linearGradient id="SVGID_1_" gradientUnits="userSpaceOnUse" x1="8.9606" y1="1.4399" x2="9.0391" y2="16.4397">
	<stop  offset="0" style="stop-color:#BC9CFF"/>
	<stop  offset="0.2814" style="stop-color:#B89DFE"/>
	<stop  offset="0.5729" style="stop-color:#AB9FFD"/>
	<stop  offset="0.8681" style="stop-color:#97A2FA"/>
	<stop  offset="1" style="stop-color:#8BA4F9"/>
</linearGradient>
<path class="st1" d="M9,1.5C4.9,1.5,1.5,4.8,1.5,9s3.4,7.5,7.5,7.5c4.1,0,7.5-3.3,7.5-7.5S13.1,1.5,9,1.5z M9,14.9c-3.3,0-6-2.7-6-6
	s2.7-6,6-6s6,2.7,6,6S12.3,14.9,9,14.9z M11.6,8.2c0.6,0,1.1-0.5,1.1-1.1S12.2,6,11.6,6s-1.1,0.5-1.1,1.1S11,8.2,11.6,8.2z M6.4,8.2
	c0.6,0,1.1-0.5,1.1-1.1S7,6,6.4,6S5.3,6.5,5.3,7.1S5.8,8.2,6.4,8.2z M9,13.1c1.7,0,3.2-1.1,3.8-2.6H5.2C5.8,12,7.3,13.1,9,13.1z"/>
</svg>
